<svg version="1.1" id="Layer_1" xmlns="http://www.w3.org/2000/svg" xmlns:xlink="http://www.w3.org/1999/xlink" x="0px" y="0px"
	 width="100%" viewBox="0 0 832 827" enable-background="new 0 0 832 827" xml:space="preserve">
<path fill="#FFFFFF" opacity="1.000000" stroke="none" 
	d="
M1.000000,171.000000 
	C1.000000,114.375946 1.000000,57.751892 1.000000,1.000000 
	C138.020874,1.000000 275.041779,1.000000 412.360901,1.317649 
	C389.431580,10.453141 366.208405,19.282526 342.975281,28.085588 
	C319.584381,36.948410 296.184174,45.786560 272.786987,54.632778 
	C244.156693,65.457588 215.523407,76.274437 186.895050,87.104355 
	C163.499496,95.954727 140.104355,104.806206 116.717987,113.680779 
	C88.406967,124.424141 60.105976,135.193939 31.799295,145.948746 
	C24.223581,148.827072 16.642916,151.692368 8.025171,154.957443 
	C10.344702,155.992569 11.481379,156.569855 12.666784,157.018356 
	C30.828281,163.889664 48.997841,170.739670 67.162094,177.603699 
	C95.948151,188.481552 124.737213,199.351486 153.514481,210.252533 
	C177.215576,219.230682 200.885345,228.291733 224.602173,237.227997 
	C233.672974,240.645813 242.835922,243.819031 252.094421,247.345993 
	C252.831207,247.430145 253.430435,247.272003 254.404816,247.049484 
	C283.144897,236.358429 311.505432,225.719894 339.875946,215.108154 
	C372.719482,202.823349 405.556702,190.521439 438.424011,178.300461 
	C484.559723,161.145905 530.743225,144.119400 576.823425,126.817314 
	C580.148193,125.568932 582.777893,125.896133 585.690857,127.039276 
	C603.625854,134.077438 621.560242,141.117310 639.479980,148.194168 
	C644.709839,150.259506 649.891174,152.447433 655.094788,154.579163 
	C655.067749,155.064682 655.040710,155.550186 655.013672,156.035706 
	C548.035889,196.528732 441.058136,237.021759 332.821655,277.991241 
	C339.822693,280.687927 345.459229,282.853180 351.091431,285.029510 
	C370.903107,292.684845 390.687683,300.412140 410.562073,307.901093 
	C412.649628,308.687714 415.518860,308.771912 417.593964,308.008820 
	C439.846466,299.825409 461.988739,291.343048 484.206909,283.065338 
	C518.607727,270.248749 553.075317,257.611145 587.457336,244.744598 
	C629.707336,228.933670 671.878174,212.911575 714.121338,197.082367 
	C747.572937,184.547531 781.086548,172.178314 814.557922,159.696259 
	C817.805176,158.485321 820.949097,156.997131 824.140930,155.637619 
	C824.119263,155.138626 824.097595,154.639648 824.075989,154.140656 
	C820.327332,152.722397 816.580383,151.299698 812.829834,149.886612 
	C788.487915,140.715302 764.144287,131.548691 739.803040,122.375618 
	C710.224304,111.228745 680.642517,100.089989 651.071350,88.923058 
	C628.737976,80.489326 606.453674,71.923210 584.048035,63.686691 
	C581.409790,62.716858 577.815796,62.584126 575.213013,63.546238 
	C538.925964,76.959953 502.726105,90.610023 466.521851,104.247208 
	C423.383148,120.496422 380.264771,136.799652 337.129547,153.058090 
	C311.248810,162.812988 285.293976,172.376358 259.520905,182.407181 
	C255.205734,184.086624 251.717270,183.901169 247.691177,182.348297 
	C229.103745,175.179169 210.462051,168.150833 191.847488,161.051941 
	C187.205780,159.281754 182.592590,157.436752 177.966278,155.626144 
	C178.035797,155.215302 178.105301,154.804459 178.174805,154.393616 
	C285.041687,114.026764 391.908539,73.659904 500.115814,32.786728 
	C483.684357,26.774519 468.805573,21.460411 454.026093,15.883179 
	C441.291992,11.077783 428.670990,5.972613 416.000000,0.999994 
	C554.896545,1.000000 693.793030,1.000000 833.000000,1.000000 
	C833.000000,57.687183 833.000000,114.374931 832.594299,171.531525 
	C831.067017,172.200531 829.884949,172.236740 828.832947,172.625366 
	C812.302002,178.732483 795.790222,184.891434 779.269226,191.025528 
	C755.556946,199.829651 731.834900,208.607452 708.127808,217.425400 
	C677.998352,228.632187 647.877686,239.862915 617.756836,251.092911 
	C596.807861,258.903351 575.864441,266.728912 554.919250,274.549500 
	C525.873718,285.394684 496.816559,296.208649 467.788910,307.101379 
	C452.824585,312.716766 437.913300,318.473480 422.732117,324.151184 
	C422.127777,324.320099 422.021149,324.600037 422.099060,325.441711 
	C422.021179,493.271698 422.010590,660.635864 422.000000,828.000000 
	C417.310760,828.000000 412.621490,828.000000 407.466125,827.531372 
	C407.000000,728.583679 407.000000,630.104736 406.999969,531.625732 
	C406.999969,530.459290 407.323517,529.163757 406.922302,528.157104 
	C406.339386,526.694458 405.527649,524.700684 404.304108,524.214050 
	C394.492096,520.311523 384.555298,516.723633 374.665924,513.014648 
	C351.085236,504.170776 327.499146,495.341095 303.934631,486.454132 
	C275.049133,475.560486 246.180328,464.622589 217.310257,453.688080 
	C192.541183,444.306824 167.783981,434.894165 143.014938,425.512756 
	C122.700066,417.818451 102.375519,410.149628 82.268005,402.549896 
	C82.268005,369.327454 82.268005,336.466858 82.268005,303.422913 
	C190.472672,344.221832 298.381744,384.909302 406.999237,425.863892 
	C406.999237,392.196960 407.038910,360.050110 406.871765,327.904358 
	C406.864105,326.430573 405.315735,324.196503 403.941345,323.626007 
	C396.442902,320.513245 388.770203,317.821259 381.164612,314.965424 
	C359.411804,306.797394 337.639282,298.681213 315.917877,290.430420 
	C291.156738,281.024963 266.466675,271.432343 241.700760,262.039612 
	C218.153076,253.108917 194.529083,244.379700 170.971725,235.474319 
	C139.814026,223.695755 108.691460,211.824203 77.548241,200.007248 
	C52.036377,190.327057 26.516388,180.668274 1.000000,171.000000 
z"/>
<path fill="#426E8C" opacity="1.000000" stroke="none" 
	d="
M1.000000,171.468658 
	C26.516388,180.668274 52.036377,190.327057 77.548241,200.007248 
	C108.691460,211.824203 139.814026,223.695755 170.971725,235.474319 
	C194.529083,244.379700 218.153076,253.108917 241.700760,262.039612 
	C266.466675,271.432343 291.156738,281.024963 315.917877,290.430420 
	C337.639282,298.681213 359.411804,306.797394 381.164612,314.965424 
	C388.770203,317.821259 396.442902,320.513245 403.941345,323.626007 
	C405.315735,324.196503 406.864105,326.430573 406.871765,327.904358 
	C407.038910,360.050110 406.999237,392.196960 406.999237,425.863892 
	C298.381744,384.909302 190.472672,344.221832 82.268005,303.422913 
	C82.268005,336.466858 82.268005,369.327454 82.268005,402.549896 
	C102.375519,410.149628 122.700066,417.818451 143.014938,425.512756 
	C167.783981,434.894165 192.541183,444.306824 217.310257,453.688080 
	C246.180328,464.622589 275.049133,475.560486 303.934631,486.454132 
	C327.499146,495.341095 351.085236,504.170776 374.665924,513.014648 
	C384.555298,516.723633 394.492096,520.311523 404.304108,524.214050 
	C405.527649,524.700684 406.339386,526.694458 406.922302,528.157104 
	C407.323517,529.163757 406.999969,530.459290 406.999969,531.625732 
	C407.000000,630.104736 407.000000,728.583679 407.000000,827.531372 
	C405.611115,828.000000 404.222198,828.000000 402.311310,827.658203 
	C400.586578,826.535583 399.473389,825.528320 398.166290,825.011475 
	C390.764465,822.084656 383.306061,819.301514 375.885529,816.421570 
	C347.245453,805.306335 318.647339,794.082031 289.967377,783.070862 
	C258.107635,770.838928 226.134247,758.902771 194.286591,746.639832 
	C161.217194,733.906494 128.267242,720.863098 95.212761,708.090637 
	C63.843681,695.969421 32.406971,684.023193 1.000001,672.000000 
	C1.000000,639.312439 1.000000,606.624878 1.390932,573.469604 
	C7.891667,575.191284 14.032969,577.297119 20.105818,579.584656 
	C46.110413,589.380005 72.094200,599.230591 98.086853,609.057617 
	C119.824547,617.275940 141.560242,625.499573 163.303650,633.702759 
	C187.479523,642.823608 211.666519,651.914978 235.842194,661.036255 
	C255.457291,668.436768 275.056030,675.880676 294.675507,683.269531 
	C304.994171,687.155640 315.341736,690.964966 325.999329,694.929138 
	C325.999329,662.558044 326.030975,630.731079 325.886810,598.904846 
	C325.880859,597.594482 324.507568,595.560730 323.296509,595.092712 
	C296.462982,584.723511 269.568573,574.511536 242.672668,564.304138 
	C222.315002,556.578003 201.935425,548.909668 181.572495,541.197388 
	C159.382935,532.793335 137.196960,524.379761 115.017525,515.949036 
	C93.749374,507.864716 72.511719,499.699768 51.222870,491.670441 
	C34.511803,485.367706 17.743097,479.217804 1.000000,473.000000 
	C1.000000,372.645782 1.000000,272.291534 1.000000,171.468658 
z"/>
<path fill="#5289AF" opacity="1.000000" stroke="none" 
	d="
M422.978027,324.166351 
	C437.913300,318.473480 452.824585,312.716766 467.788910,307.101379 
	C496.816559,296.208649 525.873718,285.394684 554.919250,274.549500 
	C575.864441,266.728912 596.807861,258.903351 617.756836,251.092911 
	C647.877686,239.862915 677.998352,228.632187 708.127808,217.425400 
	C731.834900,208.607452 755.556946,199.829651 779.269226,191.025528 
	C795.790222,184.891434 812.302002,178.732483 828.832947,172.625366 
	C829.884949,172.236740 831.067017,172.200531 832.594299,172.000183 
	C833.000000,205.354233 833.000000,238.708450 832.618103,272.543945 
	C723.540527,313.209473 614.844910,353.393768 506.236084,393.545959 
	C506.236084,426.382202 506.236084,459.000671 506.236084,492.124969 
	C508.096497,491.828278 509.739990,491.820129 511.197845,491.295868 
	C535.630615,482.509705 560.053467,473.695221 584.450806,464.811096 
	C603.171692,457.993988 621.826904,450.995972 640.565186,444.227448 
	C649.608887,440.960693 658.776550,438.037018 668.212585,434.971802 
	C668.969849,434.990662 669.402588,434.995667 669.901978,435.465027 
	C669.923645,468.293488 669.878662,500.657623 669.659119,533.113647 
	C669.267029,533.368286 669.112793,533.577637 668.645569,533.912048 
	C646.177124,542.493225 624.071106,550.960144 601.996338,559.507568 
	C571.541687,571.299805 541.144531,583.242249 510.624573,594.862488 
	C506.969940,596.253906 505.912720,597.965881 505.928986,601.656433 
	C506.057007,630.648376 506.000000,659.641052 506.000000,688.633545 
	C506.000000,690.213745 506.000000,691.794006 506.000000,693.555115 
	C507.578766,693.163696 508.728821,692.989258 509.798981,692.596863 
	C532.484314,684.277832 555.162903,675.940491 577.838257,667.594299 
	C613.230469,654.567322 648.614929,641.519287 684.010742,628.502075 
	C716.647949,616.499512 749.288452,604.505676 781.942017,592.547668 
	C798.945129,586.320984 815.979675,580.179810 833.000000,574.000000 
	C833.000000,606.354248 833.000000,638.708435 832.650024,671.648682 
	C823.192261,675.804016 814.122559,679.474426 804.969788,682.924194 
	C774.427551,694.435547 743.824280,705.785278 713.303223,717.352173 
	C678.657227,730.482361 644.082703,743.800781 609.461609,756.996765 
	C586.890686,765.599731 564.293030,774.132751 541.705688,782.692688 
	C516.676392,792.177917 491.617950,801.587158 466.625336,811.168152 
	C452.362152,816.635986 438.204926,822.380188 424.000000,828.000000 
	C423.555542,828.000000 423.111115,828.000000 422.333313,828.000000 
	C422.010590,660.635864 422.021179,493.271698 422.273621,325.350403 
	C422.733002,324.630981 422.887177,324.422028 422.978027,324.166351 
z"/>
<path fill="#FFFFFF" opacity="1.000000" stroke="none" 
	d="
M833.000000,573.531372 
	C815.979675,580.179810 798.945129,586.320984 781.942017,592.547668 
	C749.288452,604.505676 716.647949,616.499512 684.010742,628.502075 
	C648.614929,641.519287 613.230469,654.567322 577.838257,667.594299 
	C555.162903,675.940491 532.484314,684.277832 509.798981,692.596863 
	C508.728821,692.989258 507.578766,693.163696 506.000000,693.555115 
	C506.000000,691.794006 506.000000,690.213745 506.000000,688.633545 
	C506.000000,659.641052 506.057007,630.648376 505.928986,601.656433 
	C505.912720,597.965881 506.969940,596.253906 510.624573,594.862488 
	C541.144531,583.242249 571.541687,571.299805 601.996338,559.507568 
	C624.071106,550.960144 646.177124,542.493225 668.891846,533.926880 
	C669.873291,533.678467 669.979675,533.397949 669.833679,533.021729 
	C669.878662,500.657623 669.923645,468.293488 669.872742,435.166229 
	C669.147278,434.588074 668.517639,434.773041 667.888062,434.958008 
	C658.776550,438.037018 649.608887,440.960693 640.565186,444.227448 
	C621.826904,450.995972 603.171692,457.993988 584.450806,464.811096 
	C560.053467,473.695221 535.630615,482.509705 511.197845,491.295868 
	C509.739990,491.820129 508.096497,491.828278 506.236084,492.124969 
	C506.236084,459.000671 506.236084,426.382202 506.236084,393.545959 
	C614.844910,353.393768 723.540527,313.209473 832.618103,273.012604 
	C833.000000,373.020905 833.000000,473.041779 833.000000,573.531372 
z"/>
<path fill="#FFFFFF" opacity="1.000000" stroke="none" 
	d="
M1.000000,473.468658 
	C17.743097,479.217804 34.511803,485.367706 51.222870,491.670441 
	C72.511719,499.699768 93.749374,507.864716 115.017525,515.949036 
	C137.196960,524.379761 159.382935,532.793335 181.572495,541.197388 
	C201.935425,548.909668 222.315002,556.578003 242.672668,564.304138 
	C269.568573,574.511536 296.462982,584.723511 323.296509,595.092712 
	C324.507568,595.560730 325.880859,597.594482 325.886810,598.904846 
	C326.030975,630.731079 325.999329,662.558044 325.999329,694.929138 
	C315.341736,690.964966 304.994171,687.155640 294.675507,683.269531 
	C275.056030,675.880676 255.457291,668.436768 235.842194,661.036255 
	C211.666519,651.914978 187.479523,642.823608 163.303650,633.702759 
	C141.560242,625.499573 119.824547,617.275940 98.086853,609.057617 
	C72.094200,599.230591 46.110413,589.380005 20.105818,579.584656 
	C14.032969,577.297119 7.891667,575.191284 1.390932,573.000916 
	C1.000000,539.979126 1.000000,506.958221 1.000000,473.468658 
z"/>
<path fill="#FFFFFF" opacity="1.000000" stroke="none" 
	d="
M424.468658,828.000000 
	C438.204926,822.380188 452.362152,816.635986 466.625336,811.168152 
	C491.617950,801.587158 516.676392,792.177917 541.705688,782.692688 
	C564.293030,774.132751 586.890686,765.599731 609.461609,756.996765 
	C644.082703,743.800781 678.657227,730.482361 713.303223,717.352173 
	C743.824280,705.785278 774.427551,694.435547 804.969788,682.924194 
	C814.122559,679.474426 823.192261,675.804016 832.650024,672.117371 
	C833.000000,723.959717 833.000000,775.919434 833.000000,828.000000 
	C696.979126,828.000000 560.958252,828.000000 424.468658,828.000000 
z"/>
<path fill="#FFFFFF" opacity="1.000000" stroke="none" 
	d="
M1.000001,672.468628 
	C32.406971,684.023193 63.843681,695.969421 95.212761,708.090637 
	C128.267242,720.863098 161.217194,733.906494 194.286591,746.639832 
	C226.134247,758.902771 258.107635,770.838928 289.967377,783.070862 
	C318.647339,794.082031 347.245453,805.306335 375.885529,816.421570 
	C383.306061,819.301514 390.764465,822.084656 398.166290,825.011475 
	C399.473389,825.528320 400.586578,826.535583 401.894653,827.658203 
	C268.438354,828.000000 134.876709,828.000000 1.000000,828.000000 
	C1.000000,776.312866 1.000000,724.625061 1.000001,672.468628 
z"/>
<path fill="#86ACC7" opacity="1.000000" stroke="none" 
	d="
M415.625000,0.999994 
	C428.670990,5.972613 441.291992,11.077783 454.026093,15.883179 
	C468.805573,21.460411 483.684357,26.774519 500.115814,32.786728 
	C391.908539,73.659904 285.041687,114.026764 178.174805,154.393616 
	C178.105301,154.804459 178.035797,155.215302 177.966278,155.626144 
	C182.592590,157.436752 187.205780,159.281754 191.847488,161.051941 
	C210.462051,168.150833 229.103745,175.179169 247.691177,182.348297 
	C251.717270,183.901169 255.205734,184.086624 259.520905,182.407181 
	C285.293976,172.376358 311.248810,162.812988 337.129547,153.058090 
	C380.264771,136.799652 423.383148,120.496422 466.521851,104.247208 
	C502.726105,90.610023 538.925964,76.959953 575.213013,63.546238 
	C577.815796,62.584126 581.409790,62.716858 584.048035,63.686691 
	C606.453674,71.923210 628.737976,80.489326 651.071350,88.923058 
	C680.642517,100.089989 710.224304,111.228745 739.803040,122.375618 
	C764.144287,131.548691 788.487915,140.715302 812.829834,149.886612 
	C816.580383,151.299698 820.327332,152.722397 824.075989,154.140656 
	C824.097595,154.639648 824.119263,155.138626 824.140930,155.637619 
	C820.949097,156.997131 817.805176,158.485321 814.557922,159.696259 
	C781.086548,172.178314 747.572937,184.547531 714.121338,197.082367 
	C671.878174,212.911575 629.707336,228.933670 587.457336,244.744598 
	C553.075317,257.611145 518.607727,270.248749 484.206909,283.065338 
	C461.988739,291.343048 439.846466,299.825409 417.593964,308.008820 
	C415.518860,308.771912 412.649628,308.687714 410.562073,307.901093 
	C390.687683,300.412140 370.903107,292.684845 351.091431,285.029510 
	C345.459229,282.853180 339.822693,280.687927 332.821655,277.991241 
	C441.058136,237.021759 548.035889,196.528732 655.013672,156.035706 
	C655.040710,155.550186 655.067749,155.064682 655.094788,154.579163 
	C649.891174,152.447433 644.709839,150.259506 639.479980,148.194168 
	C621.560242,141.117310 603.625854,134.077438 585.690857,127.039276 
	C582.777893,125.896133 580.148193,125.568932 576.823425,126.817314 
	C530.743225,144.119400 484.559723,161.145905 438.424011,178.300461 
	C405.556702,190.521439 372.719482,202.823349 339.875946,215.108154 
	C311.505432,225.719894 283.144897,236.358429 254.428589,246.673767 
	C254.906082,241.614288 259.056519,241.879288 262.384552,240.627701 
	C277.458832,234.958572 292.413330,228.970261 307.499634,223.334213 
	C322.746765,217.638107 338.137329,212.326508 353.393066,206.652863 
	C369.109528,200.807892 384.708923,194.648499 400.415558,188.776550 
	C415.039764,183.309280 429.770142,178.126144 444.394318,172.658875 
	C460.100952,166.786957 475.704712,160.639603 491.416321,154.781311 
	C504.362488,149.954193 517.448303,145.500992 530.385254,140.649963 
	C544.842163,135.228958 559.111633,129.295288 573.653137,124.119850 
	C578.442566,122.415260 583.506714,122.011658 588.918945,124.257812 
	C609.463928,132.784210 630.176575,140.928360 651.015991,148.707916 
	C656.088440,150.601501 658.324219,153.732803 660.025513,159.282425 
	C624.956421,172.404449 590.038757,185.349655 555.212036,198.534882 
	C520.368469,211.726517 485.672729,225.309677 450.806915,238.441696 
	C416.150848,251.494720 381.484711,264.507141 347.102631,278.640259 
	C368.949646,287.924561 390.581055,296.318542 412.299347,304.481232 
	C414.050751,305.139496 416.549896,304.627899 418.445038,303.946503 
	C428.192780,300.441986 437.849396,296.684753 447.552002,293.053650 
	C456.471558,289.715576 465.420471,286.455780 474.335724,283.106415 
	C484.032227,279.463623 493.691284,275.720978 503.391937,272.089325 
	C512.312195,268.749847 521.276917,265.529388 530.202209,262.203186 
	C540.995605,258.180756 551.762207,254.086426 562.551514,250.052795 
	C571.472229,246.717758 580.420349,243.455872 589.335632,240.106522 
	C599.032104,236.463684 608.691162,232.720993 618.391846,229.089355 
	C627.312073,225.749893 636.279602,222.536758 645.201294,219.201050 
	C655.055359,215.516724 664.867981,211.721222 674.722717,208.038788 
	C684.579102,204.355789 694.479370,200.790543 704.334290,197.103775 
	C714.035828,193.474365 723.690918,189.720932 733.391602,186.089340 
	C742.311890,182.749924 751.282959,179.546036 760.200623,176.199966 
	C772.666687,171.522507 785.107361,166.777374 797.552002,162.043228 
	C803.281494,159.863647 808.994629,157.641403 816.008850,154.940353 
	C810.473145,152.925858 806.318298,151.464386 802.200073,149.906143 
	C787.302917,144.269440 772.429688,138.569138 757.524536,132.953583 
	C746.605896,128.839966 735.625671,124.889168 724.719849,120.742210 
	C712.900146,116.247765 701.167297,111.524063 689.336487,107.059631 
	C678.116821,102.825821 666.788330,98.880875 655.564758,94.657173 
	C643.731445,90.204010 631.988770,85.510521 620.163940,81.034340 
	C608.793518,76.730133 597.407715,72.458351 585.936829,68.434082 
	C583.457886,67.564423 580.317383,66.955460 577.944763,67.700790 
	C569.498413,70.354088 561.225830,73.574699 552.935913,76.708565 
	C540.947205,81.240700 529.029236,85.960724 517.028503,90.460365 
	C503.497986,95.533585 489.879272,100.371887 476.354584,105.460266 
	C464.206207,110.030838 452.166443,114.890182 440.018066,119.460823 
	C426.493408,124.549240 412.870331,129.376038 399.345673,134.464417 
	C387.197266,139.035004 375.152863,143.881882 363.009277,148.465622 
	C352.103027,152.582352 341.092773,156.423523 330.185913,160.538696 
	C318.041534,165.120789 305.989044,169.946381 293.846466,174.533340 
	C282.941223,178.652893 272.063507,182.890747 260.970612,186.442200 
	C257.325806,187.609100 252.784348,187.717072 249.113495,186.679626 
	C242.514740,184.814697 236.300720,181.622406 229.860840,179.154663 
	C213.155518,172.753204 196.381119,166.529480 179.741547,159.963028 
	C178.121979,159.323898 176.222794,156.747116 176.300278,155.159912 
	C176.386581,153.391586 178.226471,150.969147 179.932938,150.160080 
	C184.803848,147.850769 189.997070,146.222610 195.058823,144.314163 
	C205.053558,140.545853 215.050583,136.783539 225.036301,132.991470 
	C232.856491,130.021744 240.657532,127.001678 248.473373,124.020470 
	C259.831696,119.688049 271.184845,115.341835 282.560638,111.055710 
	C291.472656,107.697891 300.436340,104.476952 309.339630,101.096458 
	C320.550171,96.839912 331.704559,92.435471 342.916992,88.183914 
	C352.126740,84.691734 361.404541,81.379066 370.618378,77.897324 
	C381.683807,73.715889 392.692657,69.384453 403.764404,65.220047 
	C414.516113,61.176014 425.333710,57.307354 436.090759,53.277222 
	C447.776062,48.899307 459.435150,44.450790 471.085144,39.979614 
	C476.676605,37.833645 482.220825,35.564545 488.009644,33.262432 
	C487.367065,32.359512 487.173340,31.756367 486.805756,31.619177 
	C477.252655,28.053596 467.671661,24.562801 458.116150,21.003666 
	C448.106506,17.275387 438.171112,13.339152 428.096283,9.798313 
	C423.693268,8.250845 418.673889,5.804241 414.549408,6.675950 
	C406.263092,8.427251 398.372650,12.106493 390.367218,15.118587 
	C379.295685,19.284325 368.283295,23.606934 357.218689,27.791315 
	C346.323914,31.911470 335.379150,35.899509 324.486664,40.025528 
	C313.425934,44.215252 302.425842,48.565453 291.355621,52.729534 
	C280.602600,56.774300 269.772339,60.613659 259.016144,64.650185 
	C247.333237,69.034477 235.701843,73.555847 224.038269,77.991882 
	C213.607727,81.958939 203.151489,85.858635 192.729401,89.847641 
	C181.530563,94.133949 170.382584,98.553909 159.167435,102.796661 
	C148.424210,106.860886 137.595871,110.700287 126.855255,114.771194 
	C115.644157,119.020409 104.521317,123.502594 93.307716,127.745010 
	C82.563110,131.810013 71.731537,135.644638 60.974789,139.678146 
	C49.291134,144.059219 37.635975,148.517624 26.007233,153.042130 
	C24.554079,153.607529 23.337990,154.782196 21.182610,156.232773 
	C23.916346,157.297363 25.433510,157.905426 26.962868,158.481140 
	C45.764347,165.558853 64.581001,172.596497 83.367386,179.714050 
	C114.109344,191.361191 144.827347,203.071564 175.564087,214.732498 
	C200.245850,224.096283 224.956238,233.385345 249.579941,242.899048 
	C250.740524,243.347443 251.181030,245.659546 251.956879,247.103699 
	C242.835922,243.819031 233.672974,240.645813 224.602173,237.227997 
	C200.885345,228.291733 177.215576,219.230682 153.514481,210.252533 
	C124.737213,199.351486 95.948151,188.481552 67.162094,177.603699 
	C48.997841,170.739670 30.828281,163.889664 12.666784,157.018356 
	C11.481379,156.569855 10.344702,155.992569 8.025171,154.957443 
	C16.642916,151.692368 24.223581,148.827072 31.799295,145.948746 
	C60.105976,135.193939 88.406967,124.424141 116.717987,113.680779 
	C140.104355,104.806206 163.499496,95.954727 186.895050,87.104355 
	C215.523407,76.274437 244.156693,65.457588 272.786987,54.632778 
	C296.184174,45.786560 319.584381,36.948410 342.975281,28.085588 
	C366.208405,19.282526 389.431580,10.453141 412.829559,1.317649 
	C413.750000,1.000000 414.500000,1.000000 415.625000,0.999994 
z"/>
<path fill="#86ACC7" opacity="1.000000" stroke="none" 
	d="
M252.094421,247.345993 
	C251.181030,245.659546 250.740524,243.347443 249.579941,242.899048 
	C224.956238,233.385345 200.245850,224.096283 175.564087,214.732498 
	C144.827347,203.071564 114.109344,191.361191 83.367386,179.714050 
	C64.581001,172.596497 45.764347,165.558853 26.962868,158.481140 
	C25.433510,157.905426 23.916346,157.297363 21.182610,156.232773 
	C23.337990,154.782196 24.554079,153.607529 26.007233,153.042130 
	C37.635975,148.517624 49.291134,144.059219 60.974789,139.678146 
	C71.731537,135.644638 82.563110,131.810013 93.307716,127.745010 
	C104.521317,123.502594 115.644157,119.020409 126.855255,114.771194 
	C137.595871,110.700287 148.424210,106.860886 159.167435,102.796661 
	C170.382584,98.553909 181.530563,94.133949 192.729401,89.847641 
	C203.151489,85.858635 213.607727,81.958939 224.038269,77.991882 
	C235.701843,73.555847 247.333237,69.034477 259.016144,64.650185 
	C269.772339,60.613659 280.602600,56.774300 291.355621,52.729534 
	C302.425842,48.565453 313.425934,44.215252 324.486664,40.025528 
	C335.379150,35.899509 346.323914,31.911470 357.218689,27.791315 
	C368.283295,23.606934 379.295685,19.284325 390.367218,15.118587 
	C398.372650,12.106493 406.263092,8.427251 414.549408,6.675950 
	C418.673889,5.804241 423.693268,8.250845 428.096283,9.798313 
	C438.171112,13.339152 448.106506,17.275387 458.116150,21.003666 
	C467.671661,24.562801 477.252655,28.053596 486.805756,31.619177 
	C487.173340,31.756367 487.367065,32.359512 488.009644,33.262432 
	C482.220825,35.564545 476.676605,37.833645 471.085144,39.979614 
	C459.435150,44.450790 447.776062,48.899307 436.090759,53.277222 
	C425.333710,57.307354 414.516113,61.176014 403.764404,65.220047 
	C392.692657,69.384453 381.683807,73.715889 370.618378,77.897324 
	C361.404541,81.379066 352.126740,84.691734 342.916992,88.183914 
	C331.704559,92.435471 320.550171,96.839912 309.339630,101.096458 
	C300.436340,104.476952 291.472656,107.697891 282.560638,111.055710 
	C271.184845,115.341835 259.831696,119.688049 248.473373,124.020470 
	C240.657532,127.001678 232.856491,130.021744 225.036301,132.991470 
	C215.050583,136.783539 205.053558,140.545853 195.058823,144.314163 
	C189.997070,146.222610 184.803848,147.850769 179.932938,150.160080 
	C178.226471,150.969147 176.386581,153.391586 176.300278,155.159912 
	C176.222794,156.747116 178.121979,159.323898 179.741547,159.963028 
	C196.381119,166.529480 213.155518,172.753204 229.860840,179.154663 
	C236.300720,181.622406 242.514740,184.814697 249.113495,186.679626 
	C252.784348,187.717072 257.325806,187.609100 260.970612,186.442200 
	C272.063507,182.890747 282.941223,178.652893 293.846466,174.533340 
	C305.989044,169.946381 318.041534,165.120789 330.185913,160.538696 
	C341.092773,156.423523 352.103027,152.582352 363.009277,148.465622 
	C375.152863,143.881882 387.197266,139.035004 399.345673,134.464417 
	C412.870331,129.376038 426.493408,124.549240 440.018066,119.460823 
	C452.166443,114.890182 464.206207,110.030838 476.354584,105.460266 
	C489.879272,100.371887 503.497986,95.533585 517.028503,90.460365 
	C529.029236,85.960724 540.947205,81.240700 552.935913,76.708565 
	C561.225830,73.574699 569.498413,70.354088 577.944763,67.700790 
	C580.317383,66.955460 583.457886,67.564423 585.936829,68.434082 
	C597.407715,72.458351 608.793518,76.730133 620.163940,81.034340 
	C631.988770,85.510521 643.731445,90.204010 655.564758,94.657173 
	C666.788330,98.880875 678.116821,102.825821 689.336487,107.059631 
	C701.167297,111.524063 712.900146,116.247765 724.719849,120.742210 
	C735.625671,124.889168 746.605896,128.839966 757.524536,132.953583 
	C772.429688,138.569138 787.302917,144.269440 802.200073,149.906143 
	C806.318298,151.464386 810.473145,152.925858 816.008850,154.940353 
	C808.994629,157.641403 803.281494,159.863647 797.552002,162.043228 
	C785.107361,166.777374 772.666687,171.522507 760.200623,176.199966 
	C751.282959,179.546036 742.311890,182.749924 733.391602,186.089340 
	C723.690918,189.720932 714.035828,193.474365 704.334290,197.103775 
	C694.479370,200.790543 684.579102,204.355789 674.722717,208.038788 
	C664.867981,211.721222 655.055359,215.516724 645.201294,219.201050 
	C636.279602,222.536758 627.312073,225.749893 618.391846,229.089355 
	C608.691162,232.720993 599.032104,236.463684 589.335632,240.106522 
	C580.420349,243.455872 571.472229,246.717758 562.551514,250.052795 
	C551.762207,254.086426 540.995605,258.180756 530.202209,262.203186 
	C521.276917,265.529388 512.312195,268.749847 503.391937,272.089325 
	C493.691284,275.720978 484.032227,279.463623 474.335724,283.106415 
	C465.420471,286.455780 456.471558,289.715576 447.552002,293.053650 
	C437.849396,296.684753 428.192780,300.441986 418.445038,303.946503 
	C416.549896,304.627899 414.050751,305.139496 412.299347,304.481232 
	C390.581055,296.318542 368.949646,287.924561 347.102631,278.640259 
	C381.484711,264.507141 416.150848,251.494720 450.806915,238.441696 
	C485.672729,225.309677 520.368469,211.726517 555.212036,198.534882 
	C590.038757,185.349655 624.956421,172.404449 660.025513,159.282425 
	C658.324219,153.732803 656.088440,150.601501 651.015991,148.707916 
	C630.176575,140.928360 609.463928,132.784210 588.918945,124.257812 
	C583.506714,122.011658 578.442566,122.415260 573.653137,124.119850 
	C559.111633,129.295288 544.842163,135.228958 530.385254,140.649963 
	C517.448303,145.500992 504.362488,149.954193 491.416321,154.781311 
	C475.704712,160.639603 460.100952,166.786957 444.394318,172.658875 
	C429.770142,178.126144 415.039764,183.309280 400.415558,188.776550 
	C384.708923,194.648499 369.109528,200.807892 353.393066,206.652863 
	C338.137329,212.326508 322.746765,217.638107 307.499634,223.334213 
	C292.413330,228.970261 277.458832,234.958572 262.384552,240.627701 
	C259.056519,241.879288 254.906082,241.614288 254.053436,246.738159 
	C253.430435,247.272003 252.831207,247.430145 252.094421,247.345993 
z"/>
<path fill="#5289AF" opacity="1.000000" stroke="none" 
	d="
M422.732117,324.151184 
	C422.887177,324.422028 422.733002,324.630981 422.340881,324.884583 
	C422.021149,324.600037 422.127777,324.320099 422.732117,324.151184 
z"/>
<path fill="#5289AF" opacity="1.000000" stroke="none" 
	d="
M668.212585,434.971802 
	C668.517639,434.773041 669.147278,434.588074 669.806091,434.701874 
	C669.402588,434.995667 668.969849,434.990662 668.212585,434.971802 
z"/>
<path fill="#5289AF" opacity="1.000000" stroke="none" 
	d="
M669.659119,533.113647 
	C669.979675,533.397949 669.873291,533.678467 669.268311,533.848511 
	C669.112793,533.577637 669.267029,533.368286 669.659119,533.113647 
z"/>
</svg>