<svg version="1.1" id="Layer_1" xmlns="http://www.w3.org/2000/svg" xmlns:xlink="http://www.w3.org/1999/xlink" x="0px" y="0px"
	 width="100%" viewBox="0 0 832 827" enable-background="new 0 0 832 827" xml:space="preserve">
<path fill="#000000" opacity="1.000000" stroke="none" 
	d="
M1.000000,171.000000 
	C1.000000,114.376091 1.000000,57.752182 1.000000,1.000000 
	C137.354202,1.000000 273.708435,1.000000 410.871674,1.278991 
	C411.357574,1.936694 411.108582,2.512653 410.700775,2.665844 
	C388.117462,11.149422 365.508636,19.565168 342.929321,28.059370 
	C323.811798,35.251259 304.730164,42.538342 285.626831,49.767963 
	C258.052856,60.203281 230.471848,70.619827 202.897293,81.053589 
	C179.560730,89.883774 156.230545,98.730804 132.894882,107.563431 
	C109.553940,116.398064 86.201622,125.202690 62.869587,134.060806 
	C44.909889,140.879272 26.973921,147.760223 7.794559,155.084198 
	C11.934866,156.679855 15.001428,157.882950 18.083113,159.045975 
	C39.758450,167.226151 61.454559,175.351624 83.109909,183.584320 
	C110.520157,194.004868 137.886017,204.542175 165.293304,214.970551 
	C192.242645,225.224670 219.194855,235.472687 246.219498,245.525345 
	C249.267029,246.658981 252.128006,248.248840 256.217865,246.584412 
	C272.418030,239.991531 288.903870,234.096603 305.314880,228.026855 
	C335.396301,216.900940 365.536316,205.932587 395.583893,194.716354 
	C427.154816,182.931519 458.620697,170.865479 490.179413,159.047684 
	C519.455261,148.084793 548.781250,137.254990 578.133911,126.499657 
	C579.840210,125.874443 582.186523,125.903542 583.891785,126.543106 
	C596.027771,131.094818 608.079956,135.870407 620.147827,140.602936 
	C632.112244,145.294922 644.063660,150.019943 657.218384,155.202255 
	C548.690979,196.280640 441.301331,236.928391 332.766083,278.009766 
	C357.839722,287.657806 381.652771,296.886047 405.532440,305.938629 
	C409.083374,307.284698 413.468597,309.424438 416.577118,308.425385 
	C430.131836,304.069061 443.360016,298.695648 456.702362,293.679871 
	C488.849396,281.594910 520.999084,269.517120 553.137939,257.410309 
	C579.065247,247.643402 604.945557,237.750641 630.906616,228.074600 
	C657.466187,218.175507 684.128723,208.552872 710.691528,198.662445 
	C742.421753,186.847961 774.098145,174.888763 805.787781,162.965561 
	C812.232849,160.540604 818.633240,157.997009 826.533508,154.934708 
	C819.748657,152.448608 814.358459,150.513138 808.996521,148.502182 
	C780.778381,137.919174 752.553467,127.354057 724.358521,116.709724 
	C702.682556,108.526466 681.059021,100.204224 659.390808,92.000252 
	C635.917603,83.112854 612.457825,74.186844 588.895691,65.540474 
	C584.862854,64.060593 581.172913,60.892899 576.036255,62.949196 
	C562.352173,68.427223 548.500916,73.488411 534.710693,78.700836 
	C510.615936,87.808151 486.526337,96.929230 462.417023,105.997833 
	C443.310852,113.184517 424.162384,120.258812 405.061615,127.459732 
	C380.808136,136.603180 356.597839,145.861099 332.343170,155.001404 
	C307.937744,164.198502 283.539154,173.417496 259.029358,182.329300 
	C255.944809,183.450851 251.803131,183.842010 248.827576,182.742035 
	C224.914597,173.902267 201.164017,164.623138 176.347061,155.087692 
	C284.431183,114.258942 391.670929,73.749153 499.696228,32.942623 
	C496.570160,31.635885 494.660706,30.753254 492.693176,30.028139 
	C468.988190,21.291868 445.266541,12.600705 421.589935,3.788349 
	C420.527832,3.393030 419.854462,1.953274 419.000000,0.999997 
	C556.896545,1.000000 694.793152,1.000000 833.000000,1.000000 
	C833.000000,57.353848 833.000000,113.708267 832.646301,170.649750 
	C824.816650,174.017151 817.337891,176.789825 809.865295,179.579178 
	C782.210693,189.902054 754.565186,200.249191 726.902588,210.550522 
	C706.269897,218.233963 685.607971,225.838577 664.973816,233.518188 
	C632.113464,245.748154 599.258789,257.993317 566.414490,270.266205 
	C541.206177,279.685791 516.016663,289.155487 490.820465,298.607544 
	C469.442963,306.627136 448.122803,314.805847 426.641785,322.537659 
	C422.715820,323.950684 421.917511,325.752991 421.919647,329.549561 
	C422.012756,495.699677 422.000000,661.849854 422.000000,828.000000 
	C417.310760,828.000000 412.621490,828.000000 407.466797,827.531372 
	C407.001129,728.741577 407.000977,630.420532 407.000580,532.099426 
	C407.000580,530.766235 407.351257,529.298096 406.906860,528.133972 
	C406.346252,526.665527 405.418396,524.709045 404.163635,524.227356 
	C381.944092,515.697815 359.650391,507.361389 337.373138,498.982086 
	C311.254639,489.157990 285.121979,479.371338 259.022003,469.498199 
	C227.855011,457.708282 196.724258,445.822662 165.562805,434.018127 
	C137.801331,423.501556 110.019394,413.039093 82.347687,402.590942 
	C82.347687,369.502319 82.347687,336.653259 82.347687,303.454803 
	C190.572617,344.260223 298.377655,384.907318 406.261292,425.584045 
	C406.723785,424.072174 406.903656,423.758209 406.904053,423.444061 
	C406.943665,391.615753 407.019012,359.787170 406.849274,327.959930 
	C406.840881,326.386810 405.015991,323.968994 403.486328,323.383850 
	C368.838989,310.130096 334.120148,297.063202 299.403107,283.991974 
	C270.676697,273.176239 241.903793,262.483337 213.208374,251.586258 
	C173.461136,236.492264 133.786835,221.206223 94.044136,206.100204 
	C63.058811,194.322815 32.016815,182.694534 1.000000,171.000000 
z"/>
<path fill="#426E8C" opacity="1.000000" stroke="none" 
	d="
M1.000000,171.468658 
	C32.016815,182.694534 63.058811,194.322815 94.044136,206.100204 
	C133.786835,221.206223 173.461136,236.492264 213.208374,251.586258 
	C241.903793,262.483337 270.676697,273.176239 299.403107,283.991974 
	C334.120148,297.063202 368.838989,310.130096 403.486328,323.383850 
	C405.015991,323.968994 406.840881,326.386810 406.849274,327.959930 
	C407.019012,359.787170 406.943665,391.615753 406.904053,423.444061 
	C406.903656,423.758209 406.723785,424.072174 406.261292,425.584045 
	C298.377655,384.907318 190.572617,344.260223 82.347687,303.454803 
	C82.347687,336.653259 82.347687,369.502319 82.347687,402.590942 
	C110.019394,413.039093 137.801331,423.501556 165.562805,434.018127 
	C196.724258,445.822662 227.855011,457.708282 259.022003,469.498199 
	C285.121979,479.371338 311.254639,489.157990 337.373138,498.982086 
	C359.650391,507.361389 381.944092,515.697815 404.163635,524.227356 
	C405.418396,524.709045 406.346252,526.665527 406.906860,528.133972 
	C407.351257,529.298096 407.000580,530.766235 407.000580,532.099426 
	C407.000977,630.420532 407.001129,728.741577 407.000671,827.531372 
	C405.611115,828.000000 404.222198,828.000000 402.560638,827.641052 
	C401.059784,826.527100 399.913422,825.560547 398.591095,825.049133 
	C382.055420,818.655090 365.486725,812.346436 348.941345,805.977356 
	C324.740479,796.661377 300.559570,787.293457 276.355560,777.985718 
	C248.774826,767.379456 221.166824,756.844177 193.591293,746.224548 
	C164.948959,735.194031 136.338852,724.079895 107.700722,713.038513 
	C77.843704,701.527100 47.987030,690.014343 18.088615,678.611206 
	C12.492997,676.477051 6.701236,674.857239 1.000000,673.000000 
	C1.000000,639.979126 1.000000,606.958191 1.387318,573.472107 
	C2.272595,573.045959 2.813857,572.970642 3.262329,573.140381 
	C28.132895,582.554810 52.984299,592.019958 77.862785,601.413330 
	C99.208862,609.473022 120.603264,617.404846 141.943497,625.479919 
	C173.109558,637.273193 204.239731,649.161316 235.397583,660.976318 
	C257.959259,669.531799 280.530548,678.062134 303.119812,686.544434 
	C310.558228,689.337524 318.066315,691.945190 325.995789,694.800903 
	C325.995789,662.326355 326.034943,630.672180 325.863678,599.019104 
	C325.856232,597.643921 324.199524,595.553772 322.832520,595.018188 
	C301.431641,586.634094 279.973145,578.395264 258.484558,570.237122 
	C235.620346,561.556641 212.694351,553.038940 189.824768,544.372498 
	C164.496857,534.774597 139.206787,525.076965 113.891747,515.444946 
	C93.026230,507.505890 72.165123,499.554749 51.270611,491.692566 
	C34.538258,485.396576 17.758642,479.226135 0.999999,473.000000 
	C1.000000,372.645782 1.000000,272.291534 1.000000,171.468658 
z"/>
<path fill="#5289AF" opacity="1.000000" stroke="none" 
	d="
M422.416656,828.000000 
	C422.000000,661.849854 422.012756,495.699677 421.919647,329.549561 
	C421.917511,325.752991 422.715820,323.950684 426.641785,322.537659 
	C448.122803,314.805847 469.442963,306.627136 490.820465,298.607544 
	C516.016663,289.155487 541.206177,279.685791 566.414490,270.266205 
	C599.258789,257.993317 632.113464,245.748154 664.973816,233.518188 
	C685.607971,225.838577 706.269897,218.233963 726.902588,210.550522 
	C754.565186,200.249191 782.210693,189.902054 809.865295,179.579178 
	C817.337891,176.789825 824.816650,174.017151 832.646301,171.118408 
	C833.000000,204.687561 833.000000,238.375122 832.617737,272.543152 
	C723.543152,313.205841 614.850769,353.388062 506.175171,393.564056 
	C506.175171,426.701294 506.175171,459.657959 506.175171,493.078186 
	C560.820862,473.291840 615.164917,453.614685 669.836060,433.819122 
	C669.836060,467.350861 669.836060,500.313690 669.836060,533.475769 
	C647.200684,542.166382 624.540344,550.813965 601.919739,559.564453 
	C571.519958,571.324158 541.181885,583.244568 510.726959,594.859131 
	C507.174652,596.213867 505.899658,597.759583 505.919312,601.550354 
	C506.067780,630.206909 506.000153,658.864624 506.000000,687.521973 
	C505.999969,689.456421 506.000000,691.390808 506.000000,693.522766 
	C507.536346,693.160034 508.695953,693.009155 509.766266,692.615479 
	C532.567749,684.230591 555.355896,675.809570 578.153442,667.413940 
	C613.496826,654.398071 648.840698,641.383423 684.192993,628.391846 
	C716.790527,616.412781 749.392273,604.445068 782.006348,592.511230 
	C798.988342,586.297363 816.001160,580.167725 833.000000,574.000000 
	C833.000000,606.687561 833.000000,639.375122 832.665100,672.261719 
	C811.882141,680.137817 791.408142,687.746826 770.992310,695.508789 
	C743.577332,705.931763 716.236877,716.551208 688.809998,726.942688 
	C658.339966,738.487122 627.770813,749.770081 597.314453,761.349976 
	C562.904602,774.433167 528.595581,787.781555 494.197540,800.896118 
	C472.736084,809.078369 451.181854,817.017212 429.710480,825.173706 
	C428.608154,825.592407 427.894562,827.034424 427.000000,828.000000 
	C425.611115,828.000000 424.222198,828.000000 422.416656,828.000000 
z"/>
<path fill="#86ACC7" opacity="1.000000" stroke="none" 
	d="
M418.555847,0.999997 
	C419.854462,1.953274 420.527832,3.393030 421.589935,3.788349 
	C445.266541,12.600705 468.988190,21.291868 492.693176,30.028139 
	C494.660706,30.753254 496.570160,31.635885 499.696228,32.942623 
	C391.670929,73.749153 284.431183,114.258942 176.347061,155.087692 
	C201.164017,164.623138 224.914597,173.902267 248.827576,182.742035 
	C251.803131,183.842010 255.944809,183.450851 259.029358,182.329300 
	C283.539154,173.417496 307.937744,164.198502 332.343170,155.001404 
	C356.597839,145.861099 380.808136,136.603180 405.061615,127.459732 
	C424.162384,120.258812 443.310852,113.184517 462.417023,105.997833 
	C486.526337,96.929230 510.615936,87.808151 534.710693,78.700836 
	C548.500916,73.488411 562.352173,68.427223 576.036255,62.949196 
	C581.172913,60.892899 584.862854,64.060593 588.895691,65.540474 
	C612.457825,74.186844 635.917603,83.112854 659.390808,92.000252 
	C681.059021,100.204224 702.682556,108.526466 724.358521,116.709724 
	C752.553467,127.354057 780.778381,137.919174 808.996521,148.502182 
	C814.358459,150.513138 819.748657,152.448608 826.533508,154.934708 
	C818.633240,157.997009 812.232849,160.540604 805.787781,162.965561 
	C774.098145,174.888763 742.421753,186.847961 710.691528,198.662445 
	C684.128723,208.552872 657.466187,218.175507 630.906616,228.074600 
	C604.945557,237.750641 579.065247,247.643402 553.137939,257.410309 
	C520.999084,269.517120 488.849396,281.594910 456.702362,293.679871 
	C443.360016,298.695648 430.131836,304.069061 416.577118,308.425385 
	C413.468597,309.424438 409.083374,307.284698 405.532440,305.938629 
	C381.652771,296.886047 357.839722,287.657806 332.766083,278.009766 
	C441.301331,236.928391 548.690979,196.280640 657.218384,155.202255 
	C644.063660,150.019943 632.112244,145.294922 620.147827,140.602936 
	C608.079956,135.870407 596.027771,131.094818 583.891785,126.543106 
	C582.186523,125.903542 579.840210,125.874443 578.133911,126.499657 
	C548.781250,137.254990 519.455261,148.084793 490.179413,159.047684 
	C458.620697,170.865479 427.154816,182.931519 395.583893,194.716354 
	C365.536316,205.932587 335.396301,216.900940 305.314880,228.026855 
	C288.903870,234.096603 272.418030,239.991531 256.217865,246.584412 
	C252.128006,248.248840 249.267029,246.658981 246.219498,245.525345 
	C219.194855,235.472687 192.242645,225.224670 165.293304,214.970551 
	C137.886017,204.542175 110.520157,194.004868 83.109909,183.584320 
	C61.454559,175.351624 39.758450,167.226151 18.083113,159.045975 
	C15.001428,157.882950 11.934866,156.679855 7.794559,155.084198 
	C26.973921,147.760223 44.909889,140.879272 62.869587,134.060806 
	C86.201622,125.202690 109.553940,116.398064 132.894882,107.563431 
	C156.230545,98.730804 179.560730,89.883774 202.897293,81.053589 
	C230.471848,70.619827 258.052856,60.203281 285.626831,49.767963 
	C304.730164,42.538342 323.811798,35.251259 342.929321,28.059370 
	C365.508636,19.565168 388.117462,11.149422 410.700775,2.665844 
	C411.108582,2.512653 411.357574,1.936694 411.340332,1.278991 
	C413.370575,1.000000 415.741119,1.000000 418.555847,0.999997 
z"/>
<path fill="#000000" opacity="1.000000" stroke="none" 
	d="
M833.000000,573.531372 
	C816.001160,580.167725 798.988342,586.297363 782.006348,592.511230 
	C749.392273,604.445068 716.790527,616.412781 684.192993,628.391846 
	C648.840698,641.383423 613.496826,654.398071 578.153442,667.413940 
	C555.355896,675.809570 532.567749,684.230591 509.766266,692.615479 
	C508.695953,693.009155 507.536346,693.160034 506.000000,693.522766 
	C506.000000,691.390808 505.999969,689.456421 506.000000,687.521973 
	C506.000153,658.864624 506.067780,630.206909 505.919312,601.550354 
	C505.899658,597.759583 507.174652,596.213867 510.726959,594.859131 
	C541.181885,583.244568 571.519958,571.324158 601.919739,559.564453 
	C624.540344,550.813965 647.200684,542.166382 669.836060,533.475769 
	C669.836060,500.313690 669.836060,467.350861 669.836060,433.819122 
	C615.164917,453.614685 560.820862,473.291840 506.175171,493.078186 
	C506.175171,459.657959 506.175171,426.701294 506.175171,393.564056 
	C614.850769,353.388062 723.543152,313.205841 832.617737,273.011841 
	C833.000000,373.020905 833.000000,473.041779 833.000000,573.531372 
z"/>
<path fill="#000000" opacity="1.000000" stroke="none" 
	d="
M0.999999,473.468658 
	C17.758642,479.226135 34.538258,485.396576 51.270611,491.692566 
	C72.165123,499.554749 93.026230,507.505890 113.891747,515.444946 
	C139.206787,525.076965 164.496857,534.774597 189.824768,544.372498 
	C212.694351,553.038940 235.620346,561.556641 258.484558,570.237122 
	C279.973145,578.395264 301.431641,586.634094 322.832520,595.018188 
	C324.199524,595.553772 325.856232,597.643921 325.863678,599.019104 
	C326.034943,630.672180 325.995789,662.326355 325.995789,694.800903 
	C318.066315,691.945190 310.558228,689.337524 303.119812,686.544434 
	C280.530548,678.062134 257.959259,669.531799 235.397583,660.976318 
	C204.239731,649.161316 173.109558,637.273193 141.943497,625.479919 
	C120.603264,617.404846 99.208862,609.473022 77.862785,601.413330 
	C52.984299,592.019958 28.132895,582.554810 3.262329,573.140381 
	C2.813857,572.970642 2.272595,573.045959 1.387318,573.003418 
	C1.000000,539.979126 1.000000,506.958221 0.999999,473.468658 
z"/>
<path fill="#000000" opacity="1.000000" stroke="none" 
	d="
M427.468658,828.000000 
	C427.894562,827.034424 428.608154,825.592407 429.710480,825.173706 
	C451.181854,817.017212 472.736084,809.078369 494.197540,800.896118 
	C528.595581,787.781555 562.904602,774.433167 597.314453,761.349976 
	C627.770813,749.770081 658.339966,738.487122 688.809998,726.942688 
	C716.236877,716.551208 743.577332,705.931763 770.992310,695.508789 
	C791.408142,687.746826 811.882141,680.137817 832.665100,672.730347 
	C833.000000,724.626343 833.000000,776.252747 833.000000,828.000000 
	C697.979126,828.000000 562.958252,828.000000 427.468658,828.000000 
z"/>
<path fill="#000000" opacity="1.000000" stroke="none" 
	d="
M1.000000,673.468628 
	C6.701236,674.857239 12.492997,676.477051 18.088615,678.611206 
	C47.987030,690.014343 77.843704,701.527100 107.700722,713.038513 
	C136.338852,724.079895 164.948959,735.194031 193.591293,746.224548 
	C221.166824,756.844177 248.774826,767.379456 276.355560,777.985718 
	C300.559570,787.293457 324.740479,796.661377 348.941345,805.977356 
	C365.486725,812.346436 382.055420,818.655090 398.591095,825.049133 
	C399.913422,825.560547 401.059784,826.527100 402.143982,827.641052 
	C268.438538,828.000000 134.877090,828.000000 1.000000,828.000000 
	C1.000000,776.646179 1.000000,725.291748 1.000000,673.468628 
z"/>
</svg>